<svg width="10" height="10" viewBox="0 0 10 10" fill="none" xmlns="http://www.w3.org/2000/svg">
<g clip-path="url(#clip0)">
<path d="M7.7138 4.28971C7.66358 4.23913 7.60798 4.19644 7.55022 4.15931L3.67431 0.283579C3.29602 -0.0943445 2.68295 -0.0945239 2.30449 0.283759C1.92621 0.661862 1.92621 1.27511 2.30449 1.65357L5.64267 4.99139L2.28763 8.34679C1.90917 8.72471 1.90917 9.33814 2.28763 9.7166C2.47686 9.90548 2.72457 10 2.97227 10C3.21997 10 3.46822 9.90548 3.65691 9.71625L7.55022 5.82347C7.60798 5.78634 7.6634 5.74383 7.7138 5.69307C7.90752 5.49936 8.00043 5.24502 7.99613 4.99139C8.00061 4.73759 7.90752 4.48289 7.7138 4.28971Z" fill="#BEBEBE"/>
</g>
<defs>
<clipPath id="clip0">
<rect width="10" height="10" fill="white"/>
</clipPath>
</defs>
</svg>
